<svg aria-hidden="true" style="width:0;height:0;position:absolute;overflow:hidden" xmlns="http://www.w3.org/2000/svg"><defs><symbol id="icon-heart" viewBox="0 0 32 32"><path fill="#ff6b08" style="fill:var(--color1,#ff6b08)" d="m16 30.144-2.24-2.218C5.44 20.639 0 15.728 0 9.708 0 4.797 3.84.995 8.8.995c2.72 0 5.44 1.267 7.2 3.327C17.76 2.263 20.48.995 23.2.995c4.96 0 8.8 3.802 8.8 8.713 0 6.02-5.44 10.931-13.76 18.218L16 30.144z"/></symbol><symbol id="icon-search" viewBox="0 0 32 32"><path fill="none" stroke="#fff" style="stroke:var(--color1,#fff)" stroke-linejoin="round" stroke-linecap="round" stroke-width="2.667" d="M14.667 25.333c5.891 0 10.667-4.776 10.667-10.667S20.558 3.999 14.667 3.999v0C8.776 3.999 4 8.775 4 14.666s4.776 10.667 10.667 10.667v0zM28 28l-5.8-5.8"/></symbol><symbol id="icon-main-logo" viewBox="0 0 32 32"><path fill="none" stroke="#fff" style="stroke:var(--color1,#fff)" stroke-linejoin="round" stroke-linecap="round" stroke-width="2.667" d="M26.427 2.667H5.574a2.907 2.907 0 0 0-2.907 2.907v20.853a2.907 2.907 0 0 0 2.907 2.907v0h20.853a2.907 2.907 0 0 0 2.907-2.907v0V5.574a2.907 2.907 0 0 0-2.907-2.907v0zm-17.094 0v26.667M22.667 2.667v26.667M2.667 16h26.667M2.667 9.333h6.667M2.667 22.667h6.667m13.333 0h6.667M22.667 9.333h6.667"/></symbol><symbol id="icon-heart" viewBox="0 0 32 32"><path fill="#ff6b08" style="fill:var(--color1,#ff6b08)" d="m16 30.144-2.24-2.218C5.44 20.639 0 15.728 0 9.708 0 4.797 3.84.995 8.8.995c2.72 0 5.44 1.267 7.2 3.327C17.76 2.263 20.48.995 23.2.995c4.96 0 8.8 3.802 8.8 8.713 0 6.02-5.44 10.931-13.76 18.218L16 30.144z"/></symbol><symbol id="icon-github-logo" viewBox="0 0 32 32"><path d="M16 0C7.16 0 0 7.16 0 16c0 7.08 4.58 13.06 10.94 15.18.8.14 1.1-.34 1.1-.76 0-.38-.02-1.64-.02-2.98-4.02.74-5.06-.98-5.38-1.88-.18-.46-.96-1.88-1.64-2.26-.56-.3-1.36-1.04-.02-1.06 1.26-.02 2.16 1.16 2.46 1.64 1.44 2.42 3.74 1.74 4.66 1.32.14-1.04.56-1.74 1.02-2.14-3.56-.4-7.28-1.78-7.28-7.9 0-1.74.62-3.18 1.64-4.3-.16-.4-.72-2.04.16-4.24 0 0 1.34-.42 4.4 1.64 1.28-.36 2.64-.54 4-.54s2.72.18 4 .54c3.06-2.08 4.4-1.64 4.4-1.64.88 2.2.32 3.84.16 4.24 1.02 1.12 1.64 2.54 1.64 4.3 0 6.14-3.74 7.5-7.3 7.9.58.5 1.08 1.46 1.08 2.96 0 2.14-.02 3.86-.02 4.4 0 .42.3.92 1.1.76C27.42 29.06 32 23.06 32 16c0-8.84-7.16-16-16-16z"/></symbol><symbol id="icon-close" viewBox="0 0 32 32"><path d="M32 3.223 28.777 0 16 12.777 3.223 0 0 3.223 12.777 16 0 28.777 3.223 32 16 19.223 28.777 32 32 28.777 19.223 16 32 3.223z"/></symbol></defs></svg>